<?xml version="1.0" standalone="no"?>
<!DOCTYPE svg PUBLIC "-//W3C//DTD SVG 20010904//EN"
 "http://www.w3.org/TR/2001/REC-SVG-20010904/DTD/svg10.dtd">
<svg version="1.0" xmlns="http://www.w3.org/2000/svg"
 width="265.000000pt" height="96.000000pt" viewBox="0 0 265.000000 96.000000"
 preserveAspectRatio="xMidYMid meet">

<g transform="translate(0.000000,96.000000) scale(0.100000,-0.100000)"
fill="#000000" stroke="none">
<path d="M25 853 c92 -219 135 -325 135 -336 0 -6 -30 -72 -67 -145 -57 -111
-66 -134 -53 -142 24 -15 178 -48 263 -55 l77 -7 0 -54 c0 -60 19 -88 66 -100
14 -4 97 -4 183 -1 139 5 365 31 801 95 80 11 183 16 335 16 221 0 305 -9 453
-48 l52 -14 0 62 0 63 108 6 c102 5 210 31 236 57 7 7 -13 57 -58 149 l-69
138 76 169 c41 93 74 170 72 172 -2 2 -29 -1 -61 -7 -32 -6 -84 -11 -117 -11
-55 0 -65 -4 -123 -46 -36 -25 -79 -48 -97 -51 -19 -3 -98 2 -178 10 -280 30
-523 29 -669 -3 -25 -5 -133 -19 -240 -31 -566 -61 -589 -61 -675 -20 -33 15
-94 49 -135 75 -41 25 -86 46 -101 46 -14 0 -71 11 -125 25 -54 14 -100 25
-101 25 -2 0 4 -17 12 -37z m1165 -200 c0 -4 -11 -19 -25 -33 -20 -21 -33 -58
-60 -181 -19 -85 -35 -164 -35 -176 0 -13 -3 -23 -8 -23 -4 0 -30 36 -57 80
-28 44 -52 80 -55 80 -3 0 -18 -36 -34 -79 -33 -96 -76 -167 -106 -176 -27 -9
-40 3 -17 16 19 11 57 79 57 103 0 16 -93 210 -111 233 -16 18 -13 19 54 26
51 5 57 4 57 -13 0 -22 41 -110 51 -110 3 0 16 28 29 63 12 34 26 66 30 71 5
4 28 -21 52 -58 23 -36 46 -66 49 -66 3 0 12 35 19 78 7 42 18 89 26 104 20
39 84 86 84 61z m705 -53 c-8 -26 13 -251 26 -266 13 -16 -10 -24 -73 -24 -40
0 -48 3 -40 13 12 14 -2 227 -18 264 -8 20 -6 22 28 26 83 8 84 8 77 -13z
m-215 -6 c0 -3 -18 -30 -40 -61 l-39 -55 77 -90 c82 -96 133 -138 169 -138 34
0 36 -16 3 -30 -44 -18 -95 -14 -135 10 -20 13 -70 60 -110 107 l-74 84 45 73
c24 41 44 81 44 90 0 11 9 16 30 16 17 0 30 -3 30 -6z m-159 -18 c-14 -16 5
-253 22 -274 14 -17 10 -19 -56 -24 -52 -4 -57 -3 -52 13 8 26 -15 263 -26
267 -25 10 -3 21 44 25 28 2 58 4 66 5 10 2 11 -1 2 -12z m-208 -48 c-6 -58
14 -242 27 -246 27 -9 -7 -22 -58 -22 l-57 0 3 47 c4 54 -11 209 -22 235 -6
14 -1 17 36 21 23 2 50 4 59 5 14 2 16 -6 12 -40z"/>
</g>
</svg>
